<?xml version="1.0" standalone="no"?>
<!DOCTYPE svg PUBLIC "-//W3C//DTD SVG 20010904//EN"
 "http://www.w3.org/TR/2001/REC-SVG-20010904/DTD/svg10.dtd">
<svg version="1.0" xmlns="http://www.w3.org/2000/svg"
 width="150.000000pt" height="150.000000pt" viewBox="0 0 150.000000 150.000000"
 preserveAspectRatio="xMidYMid meet">

<g transform="translate(0.000000,150.000000) scale(0.100000,-0.100000)"
fill="#000000" stroke="none">
<path d="M709 1316 l63 -64 31 33 c18 18 48 47 67 64 l35 30 -130 1 -129 0 63
-64z"/>
<path d="M302 988 l3 -383 44 -3 c36 -3 48 1 72 24 l29 28 0 291 0 291 -68 67
c-37 37 -71 67 -75 67 -4 0 -6 -172 -5 -382z"/>
<path d="M1168 1303 l-68 -69 0 -314 0 -315 67 1 68 2 3 191 c1 105 1 277 0
381 l-3 191 -67 -68z"/>
<path d="M500 955 l0 -219 70 69 70 69 0 81 0 81 -70 69 -70 69 0 -219z"/>
<path d="M967 1072 l-67 -68 0 -197 0 -197 70 0 70 0 0 265 c0 146 -1 265 -3
265 -1 0 -33 -30 -70 -68z m63 -207 l0 -245 -60 0 -60 0 0 191 0 190 51 55
c29 30 56 54 60 54 5 0 9 -110 9 -245z"/>
<path d="M703 965 c0 -33 1 -34 19 -18 17 15 17 17 2 35 -10 10 -18 18 -19 18
-1 0 -2 -16 -2 -35z"/>
<path d="M553 692 c-46 -47 -83 -86 -83 -86 0 -1 38 -1 84 -1 l85 0 3 88 c2
48 1 86 -2 85 -3 0 -42 -39 -87 -86z"/>
<path d="M1260 371 c0 -70 10 -88 29 -53 9 16 10 16 16 0 4 -10 13 -18 21 -18
17 0 18 12 2 28 -10 10 -10 17 0 32 14 23 -1 36 -18 15 -20 -24 -27 -18 -26
21 1 22 -4 39 -11 41 -10 4 -13 -14 -13 -66z"/>
<path d="M202 418 c-17 -17 -15 -93 2 -108 20 -15 56 -9 70 12 15 24 -3 37
-19 14 -20 -26 -35 -11 -35 35 0 41 22 55 34 22 5 -12 10 -13 18 -5 6 6 8 18
5 26 -8 19 -58 21 -75 4z"/>
<path d="M315 421 c-6 -11 9 -23 19 -14 9 9 7 23 -3 23 -6 0 -12 -4 -16 -9z"/>
<path d="M316 383 c-3 -3 -6 -24 -6 -45 0 -27 4 -38 15 -38 11 0 15 11 15 39
0 38 -10 57 -24 44z"/>
<path d="M380 343 c0 -31 4 -43 12 -41 7 3 13 15 13 28 0 13 6 25 13 27 8 3
12 -6 12 -26 0 -21 5 -31 15 -31 10 0 15 10 15 34 0 39 -12 50 -52 52 -27 2
-28 -1 -28 -43z"/>
<path d="M506 374 c-19 -18 -21 -45 -4 -62 14 -14 68 -16 68 -2 0 6 -11 10
-25 10 -14 0 -25 5 -25 10 0 6 11 10 25 10 27 0 33 18 13 38 -16 16 -33 15
-52 -4z m39 -14 c3 -5 -1 -10 -9 -10 -9 0 -16 5 -16 10 0 6 4 10 9 10 6 0 13
-4 16 -10z"/>
<path d="M610 343 c0 -47 17 -60 22 -16 4 39 28 42 28 4 0 -21 5 -31 15 -31
10 0 15 10 15 30 0 17 5 30 10 30 6 0 10 -13 10 -30 0 -20 5 -30 15 -30 10 0
15 10 15 34 0 42 -21 62 -49 46 -12 -6 -21 -7 -21 -2 0 5 -13 9 -30 9 -29 0
-30 -2 -30 -44z"/>
<path d="M787 383 c-13 -12 -7 -25 8 -20 8 4 17 2 20 -2 2 -5 -7 -12 -21 -15
-40 -10 -27 -41 19 -43 36 -2 37 -1 37 32 0 24 -6 38 -19 45 -23 12 -35 13
-44 3z m33 -53 c0 -5 -5 -10 -11 -10 -5 0 -7 5 -4 10 3 6 8 10 11 10 2 0 4 -4
4 -10z"/>
<path d="M945 381 c-3 -2 -5 -31 -5 -63 0 -45 3 -58 15 -58 8 0 15 9 15 19 0
13 8 21 23 23 18 2 23 10 25 41 2 20 0 38 -5 38 -25 4 -64 4 -68 0z m50 -41
c0 -7 -6 -15 -12 -17 -8 -3 -13 4 -13 17 0 13 5 20 13 18 6 -3 12 -11 12 -18z"/>
<path d="M1067 383 c-12 -12 -7 -25 7 -20 24 9 27 -6 3 -17 -36 -18 -28 -41
16 -43 36 -1 37 0 37 33 0 39 -41 70 -63 47z"/>
<path d="M1170 353 c0 -18 0 -36 -1 -40 0 -4 4 -9 10 -11 6 -2 11 8 11 22 0
15 8 30 21 36 25 14 18 23 -16 25 -22 1 -25 -4 -25 -32z"/>
<path d="M581 166 c-18 -22 -10 -70 13 -74 10 -2 23 1 29 7 9 9 5 11 -13 9
-20 -3 -24 1 -24 22 0 20 4 25 23 22 20 -2 22 0 11 13 -16 19 -24 19 -39 1z"/>
<path d="M693 143 c-7 -3 -12 -17 -12 -31 2 -24 2 -24 6 -4 2 12 11 22 18 22
7 0 16 -10 18 -22 4 -22 4 -22 6 -2 1 24 -18 44 -36 37z"/>
<path d="M754 135 c-9 -23 3 -45 23 -44 17 1 17 2 1 6 -20 5 -24 28 -6 39 7 5
9 2 5 -9 -4 -11 -2 -14 9 -10 11 4 12 9 3 19 -15 18 -28 18 -35 -1z"/>
<path d="M847 121 c8 -34 13 -39 13 -13 0 29 16 28 25 0 6 -21 8 -21 12 -4 6
22 -9 39 -37 41 -16 1 -18 -3 -13 -24z"/>
<path d="M941 132 c7 -12 9 -25 5 -29 -5 -4 -11 -2 -13 5 -3 6 -9 10 -14 6
-14 -8 0 -24 22 -24 16 0 20 6 17 27 -2 14 -9 28 -16 31 -11 3 -11 1 -1 -16z"/>
<path d="M645 120 c2 -31 15 -37 15 -7 0 15 -4 27 -8 27 -5 0 -8 -9 -7 -20z"/>
<path d="M822 115 c0 -16 2 -22 5 -12 2 9 2 23 0 30 -3 6 -5 -1 -5 -18z"/>
</g>
</svg>
